<svg xmlns="http://www.w3.org/2000/svg" viewBox="0 0 300 60.12"><defs><style>.cls-1{fill:#1a1a1a;}</style></defs><title>citySprite</title><g id="Layer_2" data-name="Layer 2"><g id="Layer_1-2" data-name="Layer 1"><g id="Layer_2-2" data-name="Layer 2"><g id="Layer_1-2-2" data-name="Layer 1-2"><path class="cls-1" d="M29.82,60A30,30,0,0,1,2,40.82l1.85-.72A28,28,0,0,0,29.81,58Z"/><path class="cls-1" d="M35.35,48h-.55a1.08,1.08,0,0,0-.25-1.24c-.61-.6-1-.51-.71-1.72a9.79,9.79,0,0,0,0-3.57c-.15-1.49-.34-4.57-.34-4.57a2,2,0,0,0,.78-1.42c0-.93-.3-1.29-.09-2A8.15,8.15,0,0,0,35,30.66a4.39,4.39,0,0,0-.69-1.81,14.69,14.69,0,0,1-.12-2.45,15.29,15.29,0,0,0,.24-3.25c-.18-.18-1.32-.83-1.75-1.18a4.06,4.06,0,0,0-1.75-.4,1.38,1.38,0,0,0-.53-.74V16.29a2.21,2.21,0,0,0,.74-1c.09-.49,0-4.33,0-4.33H29.59s-.42-.89.06-1.07a1,1,0,0,1,1,.29V9s-1.07.46-1.18-.08a.84.84,0,0,1,.23-.82H28.36a1,1,0,0,1,.16.84c-.15.42-1.24-.06-1.24-.06V10s.74-.37,1.07-.08,0,1.08,0,1.08H26.93l0,4.29s0,.39.14.49a4.29,4.29,0,0,0,.47.39c.14,0,.14.27.14.27V18.8s-.27-.21-.42.18a5.87,5.87,0,0,0-.39,1.46,1.67,1.67,0,0,0,.16.66v1.34a13.72,13.72,0,0,1-1.38,1,.32.32,0,0,0-.28.35v1.94a4,4,0,0,0-.86,1.37,5.44,5.44,0,0,0-.32,1.14l.14.33A9.69,9.69,0,0,0,23.52,31c0,.75-.23,1.64-.21,2.23a3.55,3.55,0,0,0,.36,1.14c.09.33-.09.87.27,1.31a8,8,0,0,1,.59.86s-.11,4.57-.2,6.17S24,47.29,24,47.29s-.53,0-.56.4a1.49,1.49,0,0,0,0,.32h-.32L23,51.51H35.47Zm-1.46-1-.58,1-.89-.22c-.71-.19-.26-3-.18-5.74s0-8.27,0-8.27l.57,1.29s.36,4.74.41,6.21a28.49,28.49,0,0,1,0,4.43,1.11,1.11,0,0,0,.62,1.33Zm-.45-17.48a3,3,0,0,1,.83-.16,2.9,2.9,0,0,1,.38,1.71,2.19,2.19,0,0,1-.47,1.15v-1a7,7,0,0,0-.42,1.17,3.48,3.48,0,0,0,.09,1.15,2.75,2.75,0,0,1-.5-1.31,7,7,0,0,0-.09-1.55,8.13,8.13,0,0,0-.6-1,3.85,3.85,0,0,0,.81-.21Zm-.62,1.18a.53.53,0,0,1-.19.33s-.77.21-1.12.26a3.57,3.57,0,0,1-1.25.07.56.56,0,0,1,0-1l.86-.33a1.66,1.66,0,0,1,.71-.35,2,2,0,0,1,.73.3,3,3,0,0,1,.28.72ZM31,22.53c.07.59.38,2,.13,2a2.74,2.74,0,0,1-.81-1.62c.06-.35.14-.94-.35-1.16s-1.89-.13-1.76-.42c0,0,1.34-.54,1.89-.28a1.82,1.82,0,0,1,.9,1.45Zm-2.32-.19c0-.13.71-.09.8-.16s.24.22.16.45.17.57.25.92-1.39.45-1.46.45.62-.81.6-1a6.62,6.62,0,0,0-.34-.7Zm.47-5.87c.11-.19.89-.08.89-.08v4.3h-.91s-.11-4.05,0-4.22Zm-1.12-4.22h2.21v1.69a1.16,1.16,0,0,1-.43.81,1.55,1.55,0,0,1-.64.29h0a1.62,1.62,0,0,1-.65-.29,1.12,1.12,0,0,1-.44-.81Zm.38,12.65a4.45,4.45,0,0,0,1.26-.13,2.37,2.37,0,0,1,.79-.14l1.09.76s.35,1.31.38,1.66a4.08,4.08,0,0,0,.16.78l-.31-.13-2.27,2a3.05,3.05,0,0,0-1-1.31l-1.21-.79-.22-2.08Zm-.35,6,1.39-.39-.1.53c0,.19.12.33.35.45a2.58,2.58,0,0,1,.63.48,3.76,3.76,0,0,0,.92.45l.33,1.47.06,1.69h-.53s-1.21-3.42-1.73-3.42-1.33,3.28-1.33,3.28l-1-.06Zm-2.71-.11,1-.5-.23,7.58-.85,1.35ZM23.71,48c0-.18.21-.35.88-.72a2.47,2.47,0,0,0,1-1.18L26,41.28a1.09,1.09,0,0,1,.71-.93,5.37,5.37,0,0,0,1-.48c.09-.15-.33-.15-.86-.21s-.53-.24-.5-.49c.17-1.31.62-1.51.74-1.6a.68.68,0,0,1,.7-.12,4.12,4.12,0,0,1,.86,1,14,14,0,0,1-.5,2.15c-.24.54,0,.78,0,1.69a15,15,0,0,1-.86,3.5c-.23.36,0,.36.07.72a11,11,0,0,1-.07,1.19s-.68.26-1.72.56a2.34,2.34,0,0,1-1.54,0s-.29-.21-.29-.38Zm11.06,2.4H24.09V48.79H34.76Z"/><path class="cls-1" d="M53.17,14.77A27.7,27.7,0,0,0,29.82,2V0a29.67,29.67,0,0,1,25,13.68Z"/><path class="cls-1" d="M47.24,54.34l-1.16-1.57a28.14,28.14,0,0,0,7.08-38l1.66-1.09a30.14,30.14,0,0,1-7.59,40.66Z"/><path class="cls-1" d="M2,40.82A30.12,30.12,0,0,1,17.33,2.76l.83,1.8A28.12,28.12,0,0,0,3.87,40.11Z"/></g></g><g id="Layer_2-3" data-name="Layer 2"><g id="Layer_1-2-3" data-name="Layer 1-2"><path class="cls-1" d="M114,29.69a.44.44,0,0,0,0-.87h-2.49V27.63a11.52,11.52,0,0,0,2.49.27.44.44,0,0,0,0-.87,10.42,10.42,0,0,1-10.48-10.34.44.44,0,0,0-.44-.44h-.41V14.79a.45.45,0,0,0-.88,0v1.46h-.41a.44.44,0,0,0-.44.44,10.49,10.49,0,0,1-21,0,.44.44,0,0,0-.44-.44h-.41V14.79a.44.44,0,0,0-.37-.5.44.44,0,0,0-.51.37.43.43,0,0,0,0,.13v1.46h-.41a.44.44,0,0,0-.44.44h0A10.42,10.42,0,0,1,66.84,27a.44.44,0,0,0,0,.87,11.51,11.51,0,0,0,2.49-.27v1.19H66.84a.44.44,0,0,0,0,.87H77.31v.93H66.84a.44.44,0,0,0,0,.87H77.31v5.67H77a.44.44,0,0,0-.44.44v3.12a1.6,1.6,0,0,1-1.12-.42,2.5,2.5,0,0,0-3.37,0,1.6,1.6,0,0,1-2.17,0,.45.45,0,0,0-.62.07.43.43,0,0,0,0,.57,2.5,2.5,0,0,0,3.37,0,1.6,1.6,0,0,1,2.17,0,2.5,2.5,0,0,0,3.37,0,1.6,1.6,0,0,1,2.17,0,2.5,2.5,0,0,0,3.37,0,1.6,1.6,0,0,1,2.17,0,2.5,2.5,0,0,0,3.37,0,1.6,1.6,0,0,1,2.15,0,2.5,2.5,0,0,0,3.37,0A1.61,1.61,0,0,1,97,41a2.5,2.5,0,0,0,3.37,0,1.6,1.6,0,0,1,2.19,0,2.5,2.5,0,0,0,3.37,0,1.6,1.6,0,0,1,2.17,0,2.5,2.5,0,0,0,3.37,0,.43.43,0,0,0,0-.62.45.45,0,0,0-.58,0,1.61,1.61,0,0,1-2.17,0,2.5,2.5,0,0,0-3.37,0,1.6,1.6,0,0,1-1.12.42V37.6a.44.44,0,0,0-.44-.44h-.31V31.48H114a.44.44,0,0,0,0-.87H103.49v-.93Zm-3.33-.88h-2V26.53a11.41,11.41,0,0,0,2,.86Zm-3-2.8v2.82h-2.07V24.28a11.42,11.42,0,0,0,2,1.73Zm-2.93-2.8v5.61h-1.24V21a11.11,11.11,0,0,0,1.24,2.19Zm-3.84,7.41h-21V29.7h21ZM78.2,17.13H79v20H78.2ZM93.78,28.82V27.39a11.4,11.4,0,0,0,2-.86v2.29Zm-.88,0h-2v-.94a11.48,11.48,0,0,0,2-.26Zm-2.93,0H88V27.62a11.46,11.46,0,0,0,2,.26Zm-2.93,0H85V26.53a11.4,11.4,0,0,0,2,.86Zm14.73-11.69h.79v20h-.83Zm-.88,11.7H99.65V23.2A11.17,11.17,0,0,0,100.89,21Zm-2.12-4.55v4.55h-2V26a11.42,11.42,0,0,0,2-1.73ZM84.09,26v2.82h-2V24.28a11.44,11.44,0,0,0,2,1.73Zm-2.93-2.8v5.61H79.92V21a11.16,11.16,0,0,0,1.24,2.19Zm-6,1.07v4.55h-2V26A11.43,11.43,0,0,0,75.2,24.29Zm-5,3.11a11.36,11.36,0,0,0,2-.86v2.29h-2Zm5.87,1.43V23.2A11.13,11.13,0,0,0,77.31,21v7.8Zm1.55,11.47-.17.13V38h2.33v1.65a2.5,2.5,0,0,0-2.16.61Zm25.55,0a2.5,2.5,0,0,0-2.16-.61V38h2.33v2.4Zm-2.67-3.14a.44.44,0,0,0-.44.44V40a2.38,2.38,0,0,0-.33.26,1.61,1.61,0,0,1-2.17,0,2.5,2.5,0,0,0-3.37,0,1.61,1.61,0,0,1-2.17,0,2.5,2.5,0,0,0-3.37,0,1.6,1.6,0,0,1-2.17,0,2.5,2.5,0,0,0-3.37,0,1.6,1.6,0,0,1-2.17,0,2.43,2.43,0,0,0-.33-.26V37.6a.44.44,0,0,0-.44-.44h-.31V31.48h21v5.67Z"/><path class="cls-1" d="M110.9,43.6a1.6,1.6,0,0,1-2.17,0,2.5,2.5,0,0,0-3.37,0,1.6,1.6,0,0,1-2.17,0,2.5,2.5,0,0,0-3.37,0,1.6,1.6,0,0,1-2.17,0,2.5,2.5,0,0,0-3.37,0,1.6,1.6,0,0,1-2.17,0,2.5,2.5,0,0,0-3.37,0,1.6,1.6,0,0,1-2.17,0,2.5,2.5,0,0,0-3.37,0,1.6,1.6,0,0,1-2.17,0,2.5,2.5,0,0,0-3.37,0,1.6,1.6,0,0,1-2.17,0,2.5,2.5,0,0,0-3.37,0,1.6,1.6,0,0,1-2.17,0,.45.45,0,0,0-.62.07.43.43,0,0,0,0,.57,2.5,2.5,0,0,0,3.37,0,1.61,1.61,0,0,1,2.17,0,2.5,2.5,0,0,0,3.37,0,1.6,1.6,0,0,1,2.17,0,2.5,2.5,0,0,0,3.37,0,1.6,1.6,0,0,1,2.17,0,2.5,2.5,0,0,0,3.37,0,1.6,1.6,0,0,1,2.17,0,2.5,2.5,0,0,0,3.37,0,1.6,1.6,0,0,1,2.17,0,2.5,2.5,0,0,0,3.37,0,1.6,1.6,0,0,1,2.17,0,2.5,2.5,0,0,0,3.37,0,1.6,1.6,0,0,1,2.17,0,2.5,2.5,0,0,0,3.37,0,.43.43,0,0,0,.07-.62.45.45,0,0,0-.62-.07l-.05,0Z"/><path class="cls-1" d="M88.08,33.19"/><path class="cls-1" d="M118,23.56a28.52,28.52,0,0,0-55.26,0l-2-.46a30.55,30.55,0,0,1,59.19,0Z"/><path class="cls-1" d="M90.44,60.12a30.14,30.14,0,0,1-30.3-26.88l2-.21a28.5,28.5,0,0,0,55.49,5.09l1.94.57A30.57,30.57,0,0,1,90.44,60.12Z"/></g></g><g id="Layer_2-4" data-name="Layer 2"><g id="Layer_1-2-4" data-name="Layer 1-2"><path class="cls-1" d="M137.87,42.61a.64.64,0,0,0,0-1.27h-.62a.64.64,0,0,0,0,1.27Z"/><path class="cls-1" d="M168.31,27.87A64.82,64.82,0,0,0,157.2,12.42l-1-1a1.53,1.53,0,0,0-2.17-.35,1.6,1.6,0,0,0-.61,1h-1.38a1.86,1.86,0,0,0-1.75-1.27A1.87,1.87,0,0,0,148.56,12h-1.37a1.33,1.33,0,0,0-.29-.77,1.19,1.19,0,0,0-1.11-.43c-3.16.5-13.52,3.61-14.14,22.76a1.31,1.31,0,0,0,.72,1.24,1.19,1.19,0,0,0,1.33-.21l.09-.06,2.92,4.21h-3.2a1.26,1.26,0,0,0-1.19,1.33,1.29,1.29,0,0,0,.22.66l2.74,3.73a.61.61,0,0,0,.88,0,.65.65,0,0,0,.09-.73L133.51,40h6.55l-.06.48a1.27,1.27,0,0,0,1.08,1.42h18.56a1.26,1.26,0,0,0,1.27-1.25,1.3,1.3,0,0,0,0-.29l-.08-.33h4.06l2.58,6.33a.62.62,0,0,0,.57.39.6.6,0,0,0,.24,0,.64.64,0,0,0,.33-.83h0L166,39.56a1.24,1.24,0,0,0-1.19-.74h-4.37l-.54-2.26a1.25,1.25,0,0,0-1.21-1h-6.58V33.69h15a.64.64,0,0,0,0-1.27h-.33l.51-1.28h.14a1.55,1.55,0,0,0,1.37-.84,1.59,1.59,0,0,0,0-1.57Zm-21.4,4.38a1.33,1.33,0,0,0-.11-.43c-1-2.24-2.92-8.45.11-18.52h1.54V33.22Zm-14,1.4c.58-18.17,10.16-21.08,13.09-21.54v0l-.08.26v.06c-3.34,10.75-1.26,17.47-.19,19.91-5.84-1.1-11.18-.18-12.77,1.26Zm5.29,5.17L134.92,34a21.25,21.25,0,0,1,10.53-.36,1.21,1.21,0,0,0,1-.22l2.05,1.26v.92H141.7a1.25,1.25,0,0,0-1.25,1.07l-.24,2.11Zm20.52-2,1,3.82H141.24l.47-3.82Zm-9-1.27V12.66a.63.63,0,0,1,.62-.64.61.61,0,0,1,.45.2.62.62,0,0,1,.18.44v22.9Zm2.44-22.24h1.37l.06.38a50.63,50.63,0,0,1,0,14.52l-.18,1.24a.68.68,0,0,0,0,.09,1.59,1.59,0,0,0,.7,1.3v1.6h-1.95Zm13.32,19.09H155.3V31.09l2.38-.47a19,19,0,0,1,7.66.08l.73.16Zm2.25-2.71a.31.31,0,0,1-.22.16l-1.89-.41a20.16,20.16,0,0,0-8.14-.08l-2.51.49a.32.32,0,0,1-.27-.29l.18-1.18a51.94,51.94,0,0,0,0-14.93l-.18-1.18a.31.31,0,0,1,.57-.14l.08.1,1,1a63.57,63.57,0,0,1,10.93,15.24l.47.91a.31.31,0,0,1,0,.33Z"/><path class="cls-1" d="M134.84,46.42a.64.64,0,0,0,0,1.27,3.42,3.42,0,0,0,2.57-1,3.53,3.53,0,0,0,2.6,1,3.39,3.39,0,0,0,2.56-1,3.51,3.51,0,0,0,2.59,1,3.39,3.39,0,0,0,2.57-1,3.54,3.54,0,0,0,2.6,1,3.39,3.39,0,0,0,2.56-1,3.52,3.52,0,0,0,2.6,1,3.39,3.39,0,0,0,2.56-1,3.51,3.51,0,0,0,2.59,1,3.42,3.42,0,0,0,2.57-1,3.53,3.53,0,0,0,2.6,1,.64.64,0,0,0,0-1.27h0a2.3,2.3,0,0,1-1.69-.63,1.24,1.24,0,0,0-1.79,0h0a2.53,2.53,0,0,1-3.37,0,1.25,1.25,0,0,0-1.8,0,2.53,2.53,0,0,1-3.36,0,1.24,1.24,0,0,0-1.79,0h0a2.55,2.55,0,0,1-3.38,0,1.24,1.24,0,0,0-1.79,0h0a2.54,2.54,0,0,1-3.37,0,1.25,1.25,0,0,0-1.8,0,2.54,2.54,0,0,1-3.37,0,1.24,1.24,0,0,0-1.73,0,2.3,2.3,0,0,1-1.68.64Z"/><path class="cls-1" d="M142.13,26.08"/><path class="cls-1" d="M124,43.2A30.27,30.27,0,0,1,121,30c0-16.57,13.14-30,29.33-30A28.84,28.84,0,0,1,166.1,4.71L165,6.38a27,27,0,0,0-37.8,8.56,28.6,28.6,0,0,0-1.51,27.38Z"/><path class="cls-1" d="M150.31,60a28.62,28.62,0,0,1-17.89-6.24l1.23-1.57A26.71,26.71,0,0,0,150.35,58c15.12,0,27.36-12.59,27.33-28.06a28.48,28.48,0,0,0-4.43-15.24l1.62-1.09a30.43,30.43,0,0,1-8.58,41.51A28.85,28.85,0,0,1,150.31,60Z"/></g></g><g id="Layer_2-5" data-name="Layer 2"><g id="Layer_1-2-5" data-name="Layer 1-2"><path class="cls-1" d="M197.43,57.19c-14.77-7.06-21.19-25.11-14.34-40.32A29.67,29.67,0,0,1,203.43,0l.42,2C189,5.44,179.69,20.58,183,35.85a28.18,28.18,0,0,0,15.27,19.54Z"/><path class="cls-1" d="M209.82,60V58c15.18,0,27.51-12.64,27.53-28.28A28.41,28.41,0,0,0,221.86,4.15l.86-1.83c14.65,7.31,20.77,25.46,13.68,40.55A29.4,29.4,0,0,1,209.87,60Z"/><path class="cls-1" d="M214,50.22c-.46-4.07-2.21-19.5-2.21-23.57a41.41,41.41,0,0,1,1.63-10h.34a4.9,4.9,0,0,0,1.17-.14,5.39,5.39,0,0,0,.79-.44h.86l.42-.93h.33v-.51h-.93V14.4a8.72,8.72,0,0,0-2-.72l-2.15-.54s-.33-.23-.09-.37.52-.3.52-.43v-.2h-.37a1.65,1.65,0,0,0-.55-.65,3.75,3.75,0,0,0-1.22-.5V8.14h-.46V11a3.4,3.4,0,0,0-1.22.48,1.67,1.67,0,0,0-.56.65H208v.19c0,.14.29.31.51.43s-.09.38-.09.38l-2.15.54a9,9,0,0,0-2,.72v.22h-.92v.51h.52l.41.93H205a5.46,5.46,0,0,0,.78.44,5,5,0,0,0,1.21.14h.26a57.11,57.11,0,0,1,1,12.71c-.2,2.56-2.23,17.09-2.77,20.87H202.8v1.76h13.76V50.22Zm-8.79-34.73V15H215.7v.52Zm2.18,34.73c.4-3.54,1.8-16.58,2-21.47a63.11,63.11,0,0,0-1.07-12.11h1.06c0,1,.22,4.18.39,6.68.19,2.7.91,22.21,1.1,26.9ZM211,22.4c-.47,0-.62-4.52-.65-5.75h1.92C212.18,17.31,211.63,22.4,211,22.4Z"/></g></g><g id="Layer_2-6" data-name="Layer 2"><g id="Layer_1-2-6" data-name="Layer 1-2"><path class="cls-1" d="M242.32,30.16h-2a29.84,29.84,0,0,1,55.41-15.4l-1.71,1a27.84,27.84,0,0,0-51.69,14.4Z"/><path class="cls-1" d="M270.16,60a30,30,0,0,1-25.84-14.92l1.73-1A27.84,27.84,0,0,0,298,30.16h2A29.87,29.87,0,0,1,270.16,60Z"/><path class="cls-1" d="M270.16,31.92a.59.59,0,1,1-.59-.59.59.59,0,0,1,.59.59Z"/><path class="cls-1" d="M258.39,27.22a.59.59,0,1,1-.59-.59.59.59,0,0,1,.59.59Z"/><path class="cls-1" d="M267.22,30.75a.59.59,0,1,1-.59-.59.59.59,0,0,1,.59.59Z"/><path class="cls-1" d="M264.28,29.57a.59.59,0,1,1-.59-.59.59.59,0,0,1,.59.59Z"/><path class="cls-1" d="M261.33,28.39a.59.59,0,1,1-.59-.59.59.59,0,0,1,.59.59Z"/><path class="cls-1" d="M281.93,27.22a.59.59,0,1,1-.59-.59.59.59,0,0,1,.59.59Z"/><path class="cls-1" d="M273.1,30.75a.59.59,0,1,1-.59-.59.59.59,0,0,1,.59.59Z"/><path class="cls-1" d="M276,29.57a.59.59,0,1,1-.59-.59.59.59,0,0,1,.59.59Z"/><path class="cls-1" d="M279,28.39a.59.59,0,1,1-.59-.59.59.59,0,0,1,.59.59Z"/><path class="cls-1" d="M285.35,28.8a3,3,0,0,0,0-5.51l-2.83-1.12a2.17,2.17,0,0,0,0-.24,2.34,2.34,0,0,0-4.12-1.59,2.28,2.28,0,0,0-2.32-.74l-5.83-2.26a1.83,1.83,0,0,0-1.34,0l-5.83,2.3a2.28,2.28,0,0,0-2.32.74,2.34,2.34,0,0,0-4.12,1.54,2.26,2.26,0,0,0,0,.25l-2.83,1.12a3,3,0,0,0,0,5.51l5.16,2V41.35h-5.27a1.76,1.76,0,0,0-1.76,1.76v2.35a1.76,1.76,0,0,0,1.76,1.76h31.78a1.76,1.76,0,0,0,1.76-1.76V43.11a1.76,1.76,0,0,0-1.76-1.76h-5.29V30.83Zm-5.16-8a1.18,1.18,0,0,1,1.16,1.12,1.16,1.16,0,0,1-.07.4h0a1.18,1.18,0,0,1-.72.71h-.05a1.15,1.15,0,0,1-.32,0,1.18,1.18,0,0,1,0-2.35Zm-4.65.85v-.05a1.18,1.18,0,0,1,.72-.72h0a1.17,1.17,0,1,1-.8,1.11,1.13,1.13,0,0,1,.05-.33ZM274.3,22a1.18,1.18,0,1,1-1.18-1.18A1.18,1.18,0,0,1,274.3,22Zm-5-3.54a.66.66,0,0,1,.48,0l3,1.16a2.34,2.34,0,0,0-1.48.74,2.32,2.32,0,0,0-3.53,0,2.34,2.34,0,0,0-1.47-.73Zm1.42,3.48a1.18,1.18,0,1,1-1.18-1.18,1.18,1.18,0,0,1,1.18,1.18Zm-4.7-1.18a1.18,1.18,0,1,1-1.18,1.18,1.18,1.18,0,0,1,1.18-1.18Zm-3.53,0a1.17,1.17,0,0,1,.38.07h0a1.18,1.18,0,0,1,.72.72v.05a1.14,1.14,0,0,1,.05.33,1.18,1.18,0,1,1-1.18-1.18Zm-3.53,0a1.18,1.18,0,0,1,0,2.35,1.14,1.14,0,0,1-.32-.05h-.05a1.18,1.18,0,0,1-.72-.71h0a1.15,1.15,0,0,1-.07-.4A1.18,1.18,0,0,1,259,20.74h0Zm27.06,24.73a.59.59,0,0,1-.59.59H253.68a.59.59,0,0,1-.59-.59h0v-.59h33Zm-.59-2.94a.59.59,0,0,1,.59.59h0v.59h-33v-.59a.59.59,0,0,1,.59-.59h31.78Zm-25.31-1.17v-10l8.75,3.44a1.82,1.82,0,0,0,1.34,0L279,31.34v10Zm9.66-7.7a.66.66,0,0,1-.48,0l-15.08-6a1.77,1.77,0,0,1,0-3.32l2.81-1.11v.06l.15.19.13.13.18.15.18.13.22.12.13.06.35.11h.1a2.12,2.12,0,0,0,.9,0h.15l.3-.1L260,24l.31-.19.15-.13.2-.18h.1l.2.18.15.13.24.15.17.09.3.1H262a2.31,2.31,0,0,0,2.26-.76,2.32,2.32,0,0,0,3.53,0,2.32,2.32,0,0,0,3.53,0,2.32,2.32,0,0,0,3.53,0,2.31,2.31,0,0,0,2.26.76h.15l.3-.1.17-.09.24-.15.15-.13.2-.18h.1l.2.18.15.13L279,24l.17.09.3.1h.15a2.18,2.18,0,0,0,.91,0h.1l.35-.11.13-.06.22-.12.18-.13.18-.15.13-.13.15-.19v-.06l2.9,1.11a1.77,1.77,0,0,1,0,3.32Z"/><path class="cls-1" d="M286.64,15.44h-1.53l.76-.76a.59.59,0,1,0-.75-.92l-.09.09-.76.76V12.5a.59.59,0,0,0-1.18,0v2.11l-.75-.76a.59.59,0,0,0-.83.83l.76.76h-1.53a.59.59,0,1,0,0,1.18h1.52l-.76.76a.59.59,0,1,0,.75.92l.09-.09.76-.76v2.11a.59.59,0,0,0,1.18,0V17.45l.76.76a.59.59,0,0,0,.83-.83l-.76-.76h1.52a.59.59,0,1,0,0-1.18Z"/><path class="cls-1" d="M252.5,16.62H254l-.76.76a.59.59,0,1,0,.75.92l.09-.09.76-.76v2.11a.59.59,0,0,0,1.18,0V17.45l.76.76a.59.59,0,0,0,.83-.83l-.76-.76h1.52a.59.59,0,1,0,0-1.18h-1.52l.76-.76a.59.59,0,0,0-.75-.92l-.09.09-.76.76V12.5a.59.59,0,0,0-1.18,0v2.11l-.76-.76a.59.59,0,0,0-.83.83l.76.76H252.5a.59.59,0,1,0,0,1.18Z"/><path class="cls-1" d="M275.45,25.45H263.69a.59.59,0,1,0,0,1.18h11.77a.59.59,0,1,0,0-1.18Z"/><path class="cls-1" d="M272.51,27.81h-5.88a.59.59,0,1,0,0,1.18h5.88a.59.59,0,1,0,0-1.18Z"/></g></g></g></g></svg>