<svg xmlns="http://www.w3.org/2000/svg" xmlns:xlink="http://www.w3.org/1999/xlink" viewBox="0 0 231.24 30.22"><defs><style>.cls-1{fill:url(#linear-gradient);}.cls-2{fill:url(#linear-gradient-2);}.cls-3{fill:#fff;}.cls-4{fill:none;stroke:#000;stroke-miterlimit:10;}.cls-5{fill:url(#linear-gradient-3);}.cls-6{fill:url(#linear-gradient-4);}.cls-7{fill:url(#linear-gradient-5);}</style><linearGradient id="linear-gradient" x1="182.86" y1="-9.23" x2="215" y2="49.34" gradientUnits="userSpaceOnUse"><stop offset="0" stop-color="#f9ae39"/><stop offset="1" stop-color="#f7eb20"/></linearGradient><linearGradient id="linear-gradient-2" x1="180.76" y1="-24.33" x2="224.16" y2="54.76" xlink:href="#linear-gradient"/><linearGradient id="linear-gradient-3" x1="143.41" y1="-3.83" x2="186.81" y2="75.26" xlink:href="#linear-gradient"/><linearGradient id="linear-gradient-4" x1="164.04" y1="-15.15" x2="207.44" y2="63.94" xlink:href="#linear-gradient"/><linearGradient id="linear-gradient-5" x1="195.29" y1="-32.3" x2="238.69" y2="46.79" xlink:href="#linear-gradient"/></defs><title>Asset 2</title><g id="Layer_2" data-name="Layer 2"><g id="Layer_1-2" data-name="Layer 1"><path class="cls-1" d="M190.92,29.63a1,1,0,0,0,.47.42,8.46,8.46,0,0,0,10.16-8.3V.92c0-1-1.06-.91-1.06-.91h-2.08c-1.33,0-1.23,1-1.23,1h0v19.1a5.35,5.35,0,0,1-5.33,5.33,5.29,5.29,0,0,1-1-.1h0l-.24-.05c-.27,0-.65,0-.54.62Z"/><rect class="cls-2" x="195.13" y="8.46" width="8.5" height="2.27" rx="1.13" ry="1.13"/><path class="cls-3" d="M198.53,2.37l.68-.44a.15.15,0,0,1,.17,0l.68.44a.15.15,0,0,1,0,.27l-.68.34a.15.15,0,0,1-.14,0l-.68-.34A.15.15,0,0,1,198.53,2.37Z"/><path class="cls-3" d="M198.53,4.2l.68-.44a.15.15,0,0,1,.17,0l.68.44a.15.15,0,0,1,0,.27l-.68.34a.15.15,0,0,1-.14,0l-.68-.34A.15.15,0,0,1,198.53,4.2Z"/><path class="cls-3" d="M198.53,6l.68-.44a.15.15,0,0,1,.17,0L200,6a.15.15,0,0,1,0,.27l-.68.34a.15.15,0,0,1-.14,0l-.68-.34A.15.15,0,0,1,198.53,6Z"/><path class="cls-3" d="M197.14,20.06"/><path class="cls-4" d="M195.22,26"/><path class="cls-3" d="M15.26,10.68V16H6.17v7.5H0V.38H16.73V6H6.17v4.69Z"/><path class="cls-3" d="M40.06,23.47H33.47L28.85,17H25.71v6.44H19.54V.38h9.58C35.63.38,39.3,3.48,39.3,9a7.11,7.11,0,0,1-4.39,7l5.15,7ZM29.19,12.23c2.57,0,4-1.17,4-3.22s-1.44-3.33-4-3.33H25.71v6.55Z"/><path class="cls-3" d="M42.18,23.47V.38h17V6H48.35V9.47h9.28v5.3H48.35V18H59.52v5.49Z"/><path class="cls-3" d="M62.62,23.47V.38h6.17v23.1Z"/><path class="cls-3" d="M94,20.94a23.83,23.83,0,0,1-11.21,2.88c-6.93,0-11.32-4.24-11.32-11.85C71.52,4.81,76.1,0,83,0A26.29,26.29,0,0,1,93,2.08L91.47,6.66a28.48,28.48,0,0,0-7.88-1.29C80.07,5.38,77.76,8,77.76,12c0,4.16,2,6.4,5.34,6.4a15,15,0,0,0,5.6-.87V15.18H82.8V10.34H94Z"/><path class="cls-3" d="M112.41,23.47V14.65H103.7v8.82H97.53V.38h6.17V9h8.71V.38h6.17v23.1Z"/><path class="cls-3" d="M134.18,6V23.47H128V6h-7.12V.38h20.44V6Z"/><path class="cls-5" d="M151.82.38C160.22.38,165,5,165,12s-5,11.51-13.21,11.51h-8.18V.38Zm0,17.68c4.62,0,7-1.93,7-6.1s-2.16-6.17-7-6.17h-2V18.06Z"/><path class="cls-6" d="M190.59,12c0,7.61-4.39,11.85-11.66,11.85s-11.7-4.24-11.7-11.85,4.39-12,11.7-12S190.59,4.32,190.59,12Zm-6.25,0c0-4.28-2-6.44-5.41-6.44s-5.45,2.16-5.45,6.44,2,6.32,5.45,6.32S184.34,16.13,184.34,12Z"/><path class="cls-7" d="M231.24,12c0,7.61-4.39,11.85-11.66,11.85s-11.7-4.24-11.7-11.85,4.39-12,11.7-12S231.24,4.32,231.24,12ZM225,12c0-4.28-2-6.44-5.41-6.44s-5.45,2.16-5.45,6.44,2,6.32,5.45,6.32S225,16.13,225,12Z"/></g></g></svg>