<svg xmlns="http://www.w3.org/2000/svg" xmlns:xlink="http://www.w3.org/1999/xlink" viewBox="0 0 319.36 284.74"><defs><style>.cls-1{fill:url(#linear-gradient);}.cls-2{opacity:0;fill:url(#linear-gradient-2);}.cls-3{fill:url(#linear-gradient-3);}.cls-4{fill:url(#linear-gradient-4);}.cls-5{fill:url(#linear-gradient-5);}.cls-6{fill:url(#linear-gradient-6);}.cls-7{fill:url(#linear-gradient-7);}.cls-8{fill:url(#linear-gradient-8);}.cls-9{fill:url(#linear-gradient-9);}.cls-10{fill:url(#linear-gradient-10);}</style><linearGradient id="linear-gradient" x1="788.76" y1="-136.31" x2="955.19" y2="316.21" gradientTransform="translate(-772)" gradientUnits="userSpaceOnUse"><stop offset="0" stop-color="#2aa7df"/><stop offset="1" stop-color="#3953a2"/></linearGradient><linearGradient id="linear-gradient-2" x1="772.78" y1="-67.95" x2="918.58" y2="294.25" xlink:href="#linear-gradient"/><linearGradient id="linear-gradient-3" x1="758.95" y1="-0.84" x2="870.31" y2="275.8" xlink:href="#linear-gradient"/><linearGradient id="linear-gradient-4" x1="911.05" y1="89.69" x2="911.05" y2="89.69" xlink:href="#linear-gradient"/><linearGradient id="linear-gradient-5" x1="851.12" y1="-170.73" x2="1027.26" y2="308.18" xlink:href="#linear-gradient"/><linearGradient id="linear-gradient-6" x1="946.72" y1="-137.96" x2="1092.51" y2="224.23" xlink:href="#linear-gradient"/><linearGradient id="linear-gradient-7" x1="969.22" y1="129.79" x2="1044.88" y2="331.21" xlink:href="#linear-gradient"/><linearGradient id="linear-gradient-8" x1="873.07" y1="84.26" x2="1076.64" y2="109.48" xlink:href="#linear-gradient"/><linearGradient id="linear-gradient-9" x1="878.76" y1="140.45" x2="989.25" y2="226.65" xlink:href="#linear-gradient"/><linearGradient id="linear-gradient-10" x1="744.61" y1="-129.17" x2="918.23" y2="342.9" xlink:href="#linear-gradient"/></defs><title>Asset 16</title><g id="Layer_2" data-name="Layer 2"><g id="Layer_1-2" data-name="Layer 1"><path class="cls-1" d="M211.06.06H78.8a12.84,12.84,0,0,0,0,25.68h56.54c5.36,4.66,13.57,14.87.27,26.12H105.07A12.84,12.84,0,0,0,92.23,64.7h0a12.84,12.84,0,0,0,12.84,12.84H134c.71,1.31,10.21,10.18.84,21.58H57.93a9.61,9.61,0,0,0,0,19.21l79.38-.36c2.75,2.75,6,12.42.12,21.29H85.18a9.7,9.7,0,1,0,0,19.4h38.37c4.13,3.32,11,13.24.08,24.12h-85a8,8,0,0,0,0,16l58.8.35c2.75,2.75,6.83,13.21.9,23.93H9.61A9.61,9.61,0,0,0,0,232.67H0a9.61,9.61,0,0,0,9.61,9.61h94.93a9.61,9.61,0,0,0,9.61-9.61h0a9.58,9.58,0,0,0-3.45-7.37l32.11,0,17.36-66.59h19.75a9.7,9.7,0,1,0,0-19.4H165.23l16.09-61.72h12.21A12.84,12.84,0,0,0,206.38,64.7h0a12.84,12.84,0,0,0-12.84-12.84H179.38l-2-26.12h33.65a12.84,12.84,0,0,0,0-25.68Z"/><path class="cls-2" d="M54.18,77.35A12.56,12.56,0,0,0,66.74,64.8v-.19a12.56,12.56,0,0,0-25.11,0v.19A12.56,12.56,0,0,0,54.18,77.35Z"/><path class="cls-3" d="M47.31,158.76a9.59,9.59,0,0,0,9.59-9.59V149a9.59,9.59,0,0,0-19.18,0v.15A9.59,9.59,0,0,0,47.31,158.76Z"/><path class="cls-4" d="M139,89.69"/><path class="cls-5" d="M140.06,91.85c0-.58,2.75-3.68,2.75-4.13L138,67.51h0l-.11.13h0l4.93-11.54c6,7.41,13.75-12.38,13.75-12.38.18-.12,4.06-14.87-1.38-22s-23.92,2.13-24,2h0c.25-.36,15.37-22,91.15-23.67a50.77,50.77,0,0,1,22.77,4.82c21.28,10,65.55,34.37,66.86,64.18h0c1.72,4.14,8.62,24.13,7.24,27.92s-7.58,16.89-9.65,16.2-43.77-23.78-62.38-14.48,30.33,38.6,44.81,33.09,16.54-5.51,17.23-3.45,9.31,18.27,5.17,30S295,201.37,292.64,205.5s-2.41,7.58-18.61,9.65-22.4-1-33.43,17.57a0,0,0,0,0,0,0l30.47,33.92s11.87,13.13,11.86,13.13c-2.48-.2-157.1-24.64-198.29-37.79a0,0,0,0,1,0,0l27.74-37.51.06-.05,14.84-21.69-.08,0,9.65-23.09h0l3-8.89h0l5.27-23.54,0,0,2.65-8.61a.84.84,0,0,0-.08-.67c-1.33-2.28-7.52-12.41-7.63-23.39"/><path class="cls-6" d="M262.88,112.81s25.57-.42,26.4,2.1-2.1,8.8-9.64,7.54S262.88,112.81,262.88,112.81Z"/><path class="cls-7" d="M274.85,215,174.07,189.58l55.55,48.32-.35,33.5,58.12,13.34-46.83-52.08s7.9-13.42,14.7-14.89S274.85,215,274.85,215Z"/><path class="cls-8" d="M134.56,78.09s9.63,11,0,20.63l57.77,2.75Z"/><path class="cls-9" d="M126.31,162s8.91,8-1.74,19.82l60.88-7.44Z"/><rect class="cls-10" x="19.02" y="51.96" width="49.52" height="24.76" rx="9.85" ry="9.85"/></g></g></svg>