<svg xmlns="http://www.w3.org/2000/svg" xmlns:xlink="http://www.w3.org/1999/xlink" viewBox="0 0 495.82 303.34"><defs><style>.cls-1{fill:url(#linear-gradient);}.cls-2{fill:url(#linear-gradient-2);}.cls-3{fill:url(#linear-gradient-3);}.cls-4{fill:url(#linear-gradient-4);}.cls-5{fill:url(#linear-gradient-5);}.cls-6{fill:url(#linear-gradient-6);}.cls-7{fill:url(#linear-gradient-7);}.cls-8{fill:url(#linear-gradient-8);}.cls-9{fill:url(#linear-gradient-9);}.cls-10,.cls-11,.cls-15{opacity:0.15;}.cls-10,.cls-11,.cls-15,.cls-27,.cls-34,.cls-38,.cls-41{isolation:isolate;}.cls-10{fill:url(#linear-gradient-10);}.cls-11{fill:url(#linear-gradient-11);}.cls-12{fill:url(#linear-gradient-12);}.cls-13{fill:url(#linear-gradient-13);}.cls-14{fill:url(#linear-gradient-14);}.cls-15{fill:url(#linear-gradient-15);}.cls-16{fill:url(#linear-gradient-16);}.cls-17{fill:url(#linear-gradient-17);}.cls-18{fill:url(#linear-gradient-18);}.cls-19{fill:url(#linear-gradient-19);}.cls-20{fill:url(#linear-gradient-20);}.cls-21{fill:url(#linear-gradient-21);}.cls-22{fill:url(#linear-gradient-22);}.cls-23{fill:url(#linear-gradient-23);}.cls-24{fill:url(#linear-gradient-24);}.cls-25{fill:url(#linear-gradient-25);}.cls-26{fill:url(#linear-gradient-26);}.cls-27,.cls-34,.cls-38,.cls-41{opacity:0.25;}.cls-27{fill:url(#linear-gradient-27);}.cls-28{fill:url(#linear-gradient-28);}.cls-29{fill:url(#linear-gradient-29);}.cls-30{fill:url(#linear-gradient-30);}.cls-31{fill:url(#linear-gradient-31);}.cls-32{fill:url(#linear-gradient-32);}.cls-33{fill:url(#linear-gradient-33);}.cls-34{fill:url(#linear-gradient-34);}.cls-35{fill:url(#linear-gradient-35);}.cls-36{fill:url(#linear-gradient-36);}.cls-37{fill:url(#linear-gradient-37);}.cls-38{fill:url(#linear-gradient-38);}.cls-39{fill:url(#linear-gradient-39);}.cls-40{fill:url(#linear-gradient-40);}.cls-41{fill:url(#linear-gradient-41);}.cls-42{fill:url(#linear-gradient-42);}.cls-43{fill:url(#linear-gradient-43);}.cls-44{fill:#f2f2f2;}.cls-45{fill:url(#linear-gradient-44);}.cls-46{fill:url(#linear-gradient-45);}.cls-47{fill:url(#linear-gradient-46);}.cls-48{fill:url(#linear-gradient-47);}.cls-49{fill:url(#linear-gradient-48);}.cls-50{fill:url(#linear-gradient-49);}.cls-51{fill:url(#linear-gradient-50);}.cls-52{fill:url(#linear-gradient-51);}.cls-53{fill:url(#linear-gradient-52);}.cls-54{fill:url(#linear-gradient-53);}.cls-55{fill:url(#linear-gradient-54);}.cls-56{fill:url(#linear-gradient-55);}.cls-57{fill:url(#linear-gradient-56);}</style><linearGradient id="linear-gradient" x1="286.72" y1="513.24" x2="352" y2="365.1" gradientTransform="matrix(1, 0, 0, -1, 0, 488)" gradientUnits="userSpaceOnUse"><stop offset="0" stop-color="#2aa7df"/><stop offset="1" stop-color="#3953a2"/></linearGradient><linearGradient id="linear-gradient-2" x1="279.25" y1="509.95" x2="344.53" y2="361.81" xlink:href="#linear-gradient"/><linearGradient id="linear-gradient-3" x1="282.66" y1="511.45" x2="347.94" y2="363.31" xlink:href="#linear-gradient"/><linearGradient id="linear-gradient-4" x1="285.63" y1="512.76" x2="350.91" y2="364.62" xlink:href="#linear-gradient"/><linearGradient id="linear-gradient-5" x1="305.79" y1="521.65" x2="371.07" y2="373.51" xlink:href="#linear-gradient"/><linearGradient id="linear-gradient-6" x1="285.2" y1="512.57" x2="350.48" y2="364.43" xlink:href="#linear-gradient"/><linearGradient id="linear-gradient-7" x1="319.69" y1="527.77" x2="384.97" y2="379.63" xlink:href="#linear-gradient"/><linearGradient id="linear-gradient-8" x1="261.95" y1="502.33" x2="327.23" y2="354.19" xlink:href="#linear-gradient"/><linearGradient id="linear-gradient-9" x1="227.3" y1="487.06" x2="292.58" y2="338.92" xlink:href="#linear-gradient"/><linearGradient id="linear-gradient-10" x1="263.97" y1="445.52" x2="358.43" y2="445.52" xlink:href="#linear-gradient"/><linearGradient id="linear-gradient-11" x1="153.73" y1="414.86" x2="234.2" y2="414.86" xlink:href="#linear-gradient"/><linearGradient id="linear-gradient-12" x1="123.46" y1="533.4" x2="190.92" y2="348.18" gradientTransform="matrix(1, 0, 0, -1, 26.13, 486.73)" xlink:href="#linear-gradient"/><linearGradient id="linear-gradient-13" x1="128.42" y1="530.97" x2="192.45" y2="355.16" gradientTransform="matrix(1, 0, 0, -1, 26.13, 486.73)" xlink:href="#linear-gradient"/><linearGradient id="linear-gradient-14" x1="168.17" y1="468.3" x2="168.17" y2="468.3" xlink:href="#linear-gradient"/><linearGradient id="linear-gradient-15" x1="1" y1="439.13" x2="89.74" y2="439.13" xlink:href="#linear-gradient"/><linearGradient id="linear-gradient-16" x1="9.24" y1="548.93" x2="84.5" y2="341.35" xlink:href="#linear-gradient"/><linearGradient id="linear-gradient-17" x1="6.99" y1="548.11" x2="82.25" y2="340.54" xlink:href="#linear-gradient"/><linearGradient id="linear-gradient-18" x1="1.64" y1="546.17" x2="76.9" y2="338.59" xlink:href="#linear-gradient"/><linearGradient id="linear-gradient-19" x1="-0.61" y1="545.36" x2="74.65" y2="337.78" xlink:href="#linear-gradient"/><linearGradient id="linear-gradient-20" x1="8.68" y1="548.73" x2="83.94" y2="341.15" xlink:href="#linear-gradient"/><linearGradient id="linear-gradient-21" x1="28.34" y1="555.85" x2="103.59" y2="348.27" xlink:href="#linear-gradient"/><linearGradient id="linear-gradient-22" x1="-20.72" y1="538.07" x2="54.53" y2="330.49" xlink:href="#linear-gradient"/><linearGradient id="linear-gradient-23" x1="-2.83" y1="544.56" x2="72.42" y2="336.98" xlink:href="#linear-gradient"/><linearGradient id="linear-gradient-24" x1="15.67" y1="551.25" x2="90.92" y2="343.68" xlink:href="#linear-gradient"/><linearGradient id="linear-gradient-25" x1="34.69" y1="558.15" x2="109.94" y2="350.58" xlink:href="#linear-gradient"/><linearGradient id="linear-gradient-26" x1="55.7" y1="565.78" x2="130.96" y2="358.2" xlink:href="#linear-gradient"/><linearGradient id="linear-gradient-27" x1="413.33" y1="308.57" x2="495.82" y2="308.57" gradientTransform="matrix(1, 0, 0, -1, 0, 488)" gradientUnits="userSpaceOnUse"><stop offset="0" stop-color="#f9ae39"/><stop offset="1" stop-color="#f7eb20"/></linearGradient><linearGradient id="linear-gradient-28" x1="418.2" y1="352.41" x2="506.15" y2="200.18" xlink:href="#linear-gradient-27"/><linearGradient id="linear-gradient-29" x1="375.34" y1="327.65" x2="463.3" y2="175.43" xlink:href="#linear-gradient-27"/><linearGradient id="linear-gradient-30" x1="405.41" y1="345.02" x2="493.36" y2="192.8" xlink:href="#linear-gradient-27"/><linearGradient id="linear-gradient-31" x1="399.38" y1="341.53" x2="487.33" y2="189.31" xlink:href="#linear-gradient-27"/><linearGradient id="linear-gradient-32" x1="396.51" y1="339.88" x2="484.46" y2="187.66" xlink:href="#linear-gradient-27"/><linearGradient id="linear-gradient-33" x1="425.95" y1="356.89" x2="513.9" y2="204.67" xlink:href="#linear-gradient-27"/><linearGradient id="linear-gradient-34" x1="256.27" y1="288.42" x2="351.02" y2="288.42" xlink:href="#linear-gradient-27"/><linearGradient id="linear-gradient-35" x1="287.52" y1="359.46" x2="343.28" y2="204.99" xlink:href="#linear-gradient-27"/><linearGradient id="linear-gradient-36" x1="309.61" y1="367.43" x2="365.38" y2="212.97" xlink:href="#linear-gradient-27"/><linearGradient id="linear-gradient-37" x1="257.94" y1="348.78" x2="313.71" y2="194.31" xlink:href="#linear-gradient-27"/><linearGradient id="linear-gradient-38" x1="8.01" y1="319" x2="92.26" y2="319" xlink:href="#linear-gradient-27"/><linearGradient id="linear-gradient-39" x1="8.74" y1="428.25" x2="98.04" y2="202.29" xlink:href="#linear-gradient-27"/><linearGradient id="linear-gradient-40" x1="6.97" y1="427.56" x2="96.28" y2="201.59" xlink:href="#linear-gradient-27"/><linearGradient id="linear-gradient-41" x1="166.77" y1="319.95" x2="247.85" y2="319.95" xlink:href="#linear-gradient-27"/><linearGradient id="linear-gradient-42" x1="123.98" y1="385.17" x2="245.08" y2="141.61" xlink:href="#linear-gradient-27"/><linearGradient id="linear-gradient-43" x1="366.14" y1="273.8" x2="332.39" y2="193.8" xlink:href="#linear-gradient"/><linearGradient id="linear-gradient-44" x1="384.11" y1="265.79" x2="335.11" y2="210.04" xlink:href="#linear-gradient"/><linearGradient id="linear-gradient-45" x1="71.32" y1="214.97" x2="-13.87" y2="214.97" xlink:href="#linear-gradient"/><linearGradient id="linear-gradient-46" x1="71.32" y1="214.97" x2="-13.87" y2="214.97" xlink:href="#linear-gradient"/><linearGradient id="linear-gradient-47" x1="71.32" y1="210.08" x2="-13.87" y2="210.08" xlink:href="#linear-gradient"/><linearGradient id="linear-gradient-48" x1="71.32" y1="210.08" x2="-13.87" y2="210.08" xlink:href="#linear-gradient"/><linearGradient id="linear-gradient-49" x1="187.25" y1="302.19" x2="151.25" y2="174.19" xlink:href="#linear-gradient"/><linearGradient id="linear-gradient-50" x1="153.54" y1="282.64" x2="156.2" y2="198.31" xlink:href="#linear-gradient"/><linearGradient id="linear-gradient-51" x1="17.85" y1="217.16" x2="42.37" y2="140.18" gradientTransform="matrix(0.98, 0.19, 0.19, -0.98, 15.12, 428.51)" xlink:href="#linear-gradient"/><linearGradient id="linear-gradient-52" x1="40.54" y1="225.94" x2="69.65" y2="134.55" gradientTransform="matrix(0.98, 0.19, 0.19, -0.98, 15.12, 428.51)" xlink:href="#linear-gradient"/><linearGradient id="linear-gradient-53" x1="38.56" y1="226.03" x2="67.66" y2="134.65" gradientTransform="matrix(0.98, 0.19, 0.19, -0.98, 15.12, 428.51)" xlink:href="#linear-gradient"/><linearGradient id="linear-gradient-54" x1="249.65" y1="270.74" x2="195.65" y2="168.75" xlink:href="#linear-gradient"/><linearGradient id="linear-gradient-55" x1="273.9" y1="219.74" x2="286.1" y2="219.74" xlink:href="#linear-gradient"/><linearGradient id="linear-gradient-56" x1="251.95" y1="213.49" x2="307.99" y2="213.49" xlink:href="#linear-gradient"/></defs><title>sprite</title><g id="Layer_2" data-name="Layer 2"><g id="Layer_1-2" data-name="Layer 1"><g id="Layer_2-2" data-name="Layer 2"><g id="Layer_1-2-2" data-name="Layer 1-2"><path class="cls-1" d="M311.15,52.72v3.54a16,16,0,0,0,15.94-15.94h-3.54A12.42,12.42,0,0,1,311.15,52.72Z"/><path class="cls-2" d="M311.15,24.37a16,16,0,0,0-16,15.95h3.54a12.42,12.42,0,0,1,12.4-12.4Z"/><path class="cls-3" d="M312.92,49.17h.67a4.65,4.65,0,0,0,.76-9.24l-5.82-1a1.11,1.11,0,0,1,.18-2.2h4.88a1.11,1.11,0,0,1,1.11,1.11h0v.67h3.54v-.67a4.65,4.65,0,0,0-4.65-4.65h-.67V31.46h-3.54v1.77h-.67a4.65,4.65,0,0,0-.76,9.24l5.82,1a1.11,1.11,0,0,1-.18,2.2h-4.88a1.11,1.11,0,0,1-1.11-1.11h0v-.67h-3.54v.67a4.65,4.65,0,0,0,4.65,4.65h.67V51h3.54Z"/><path class="cls-4" d="M321.78,19.9a22.85,22.85,0,0,0-10.63-2.62,11.53,11.53,0,0,0-1.77.09V4.88h-3.55v13A23,23,0,0,0,302.29,19v-3.5h-3.54v5.31h.18a23.21,23.21,0,0,0-5.49,4.79V12h-3.55V31.46h0a23,23,0,1,0,42.52,0h0V17.28h-3.54v8.34a23.21,23.21,0,0,0-3.54-3.42V12h-3.55Zm3.54,7.1a19.43,19.43,0,1,1-3.54-3v9.22h3.54Z"/><rect class="cls-5" x="321.78" y="4.88" width="3.54" height="3.54"/><rect class="cls-6" x="298.75" y="8.43" width="3.54" height="3.54"/><path class="cls-7" d="M343.06,24.66a1.77,1.77,0,0,0,3.49,0A6.85,6.85,0,0,1,352.19,19a1.77,1.77,0,0,0,0-3.49,6.85,6.85,0,0,1-5.63-5.63,1.77,1.77,0,0,0-3.49,0,6.85,6.85,0,0,1-5.63,5.63,1.77,1.77,0,0,0,0,3.49A6.85,6.85,0,0,1,343.06,24.66Zm1.75-9.91a10.4,10.4,0,0,0,2.53,2.53,10.4,10.4,0,0,0-2.53,2.53,10.4,10.4,0,0,0-2.53-2.53A10.4,10.4,0,0,0,344.81,14.75Z"/><path class="cls-8" d="M356.87,77.52a7.46,7.46,0,0,0-3.52.89l-20.1,10.82a8,8,0,0,0-7-11.71H306.47a20.7,20.7,0,0,0-26,0H258v3.54h21.26v26.57H258v3.54h70.49a8.81,8.81,0,0,0,4.91-1.49L361,91.3a7.54,7.54,0,0,0-4.12-13.78ZM359,88.35l-27.58,18.4a5.29,5.29,0,0,1-2.95.89H282.8V80.13a17.18,17.18,0,0,1,21.88.51,1.77,1.77,0,0,0,1.15.43h20.38a4.43,4.43,0,0,1,0,8.86h-18.6a1.77,1.77,0,0,0,0,3.54h24.8a1.77,1.77,0,0,0,.84-.21L355,81.53a4,4,0,0,1,4,6.83Z"/><path class="cls-9" d="M275.72,98.78a5.31,5.31,0,1,0-5.31,5.31h0A5.31,5.31,0,0,0,275.72,98.78Zm-7.09,0a1.77,1.77,0,1,1,1.77,1.77h0A1.77,1.77,0,0,1,268.63,98.78Z"/><path class="cls-10" d="M279,7.05,326.85.13C333-.77,339.08,3,342.57,10l12.95,25.76C362,48.7,357.14,66.43,346,70.49L308.25,84.18a12.7,12.7,0,0,1-9.81-.44l-17.32-8c-5-2.33-9-7.77-10.6-14.65l-5.76-24.55C261.55,22.84,268.43,8.59,279,7.05Z"/></g></g><g id="Layer_2-3" data-name="Layer 2"><g id="Layer_1-2-3" data-name="Layer 1-2"><path class="cls-11" d="M158.66,60.24l16-15.24a16,16,0,0,1,11-4.4h26.69a16,16,0,0,1,15.4,11.71l5.86,21.15a16,16,0,0,1-8.52,18.68l-25.1,12a16,16,0,0,1-16.61-1.73L160,84.5a16,16,0,0,1-1.34-24.26Z"/><path class="cls-12" d="M155.28,107.31a1.44,1.44,0,0,1-1.43-1.44V100.1a6.33,6.33,0,0,1,6.31-6.29h5.55V81.63a1.43,1.43,0,0,1,1.11-1.39h.1a12.07,12.07,0,0,0,9.42-12.94l-.06-.6-.55-.23c-5.16-2.14-9.85-6.63-13.58-13A51.26,51.26,0,0,1,158.94,47l-.13-.33-.31-.17A38.47,38.47,0,0,1,139.08,19a6.53,6.53,0,0,1,1.5-5.28,6.63,6.63,0,0,1,5-2.32H154V8.15A4.17,4.17,0,0,1,158.16,4h0l49.92.2a4.17,4.17,0,0,1,4.15,4.18v3.3h8.36a6.62,6.62,0,0,1,5,2.36,6.53,6.53,0,0,1,1.46,5.29,38.47,38.47,0,0,1-19.61,27.39l-.31.17-.14.33a51.26,51.26,0,0,1-3.26,6.46c-3.75,6.21-8.37,10.62-13.46,12.75l-.54.23-.07.58A12.08,12.08,0,0,0,199,80.38a1.44,1.44,0,0,1,1.12,1.41V94h5.52a6.32,6.32,0,0,1,6.29,6.34v5.77a1.44,1.44,0,0,1-1.44,1.43Zm4.9-10.63a3.44,3.44,0,0,0-3.44,3.42v4.33l52.25.21v-4.33a3.44,3.44,0,0,0-3.42-3.45Zm8.42-2.84,28.59.16V83.26l-28.58-.12Zm10.67-25.11a14.89,14.89,0,0,1-2.39,7.83,15.14,15.14,0,0,1-1.55,2l-1.53,1.68,18.34.07-1.52-1.68a15,15,0,0,1-3.88-9.91V67.59l-1.13.16a18.53,18.53,0,0,1-2.64.19,18.76,18.76,0,0,1-2.55-.18l-1.12-.16ZM158.18,6.87a1.29,1.29,0,0,0-1.29,1.29h0V19.82c0,12.18,2.71,23.63,7.78,32.23,4.92,8.36,11.42,13,18.28,13s13.37-4.55,18.34-12.85c5.13-8.56,8-20,8-32.17V8.37A1.29,1.29,0,0,0,208,7.07h0ZM212.2,20a75.25,75.25,0,0,1-2.64,19.8l-.81,2.93,2.39-1.88a35.3,35.3,0,0,0,13.12-22,3.61,3.61,0,0,0-.82-3,3.76,3.76,0,0,0-2.86-1.34h-8.36Zm-66.58-5.71a3.75,3.75,0,0,0-2.86,1.31,3.61,3.61,0,0,0-.84,3,35.31,35.31,0,0,0,12.94,22.07l2.38,1.9-.79-2.94A75.22,75.22,0,0,1,154,19.81V14.33Z"/><path class="cls-13" d="M190.7,45a1.44,1.44,0,0,1-.67-.17l-7-3.73L176,44.77a1.44,1.44,0,0,1-2.08-1.52l1.38-7.84-5.68-5.58a1.43,1.43,0,0,1-.36-1.47,1.45,1.45,0,0,1,1.16-1l7.88-1.11,3.55-7.12a1.43,1.43,0,0,1,1.29-.8,1.45,1.45,0,0,1,1.29.81l3.49,7.15,7.87,1.18a1.45,1.45,0,0,1,1.16,1,1.43,1.43,0,0,1-.39,1.53l-5.72,5.53,1.31,7.85A1.44,1.44,0,0,1,190.87,45ZM183,38a1.44,1.44,0,0,1,.67.17l5.12,2.72-1-5.72a1.43,1.43,0,0,1,.45-1.17l4.17-4-5.74-.86a1.44,1.44,0,0,1-1.08-.79l-2.54-5.21-2.59,5.19a1.44,1.44,0,0,1-1.08.67l-5.75.81,4.14,4.07a1.44,1.44,0,0,1,.41,1.27l-1,5.71,5.15-2.68A1.45,1.45,0,0,1,183,38Z"/><path class="cls-14" d="M168.17,19.7"/></g></g><g id="Layer_2-4" data-name="Layer 2"><g id="Layer_1-2-4" data-name="Layer 1-2"><path class="cls-15" d="M13.83,17.67,37.27,5.62A23.64,23.64,0,0,1,65,10.11L83,28.56a23.64,23.64,0,0,1,1.58,31.28l-20.79,26A23.64,23.64,0,0,1,36.39,93L15.68,84.52A23.64,23.64,0,0,1,1,62.65v-24A23.64,23.64,0,0,1,13.83,17.67Z"/><path class="cls-16" d="M25.49,13.6H48.31v3.51H25.49Z"/><path class="cls-17" d="M25.49,20.62H48.31v3.51H25.49Z"/><path class="cls-18" d="M25.49,27.65h15.8v3.51H25.49Z"/><path class="cls-19" d="M25.49,34.67h15.8v3.51H25.49Z"/><path class="cls-20" d="M16.71,104.87H122v3.51H16.71Z"/><path class="cls-21" d="M107.19,17.42,110,9.32l5.16,10.33a1.76,1.76,0,0,0,3.14-1.57l-7-14a1.76,1.76,0,0,0-2.3-.82h0l-14,7a1.76,1.76,0,0,0,1.57,3.14l10.17-5.08L104,16.24A93.67,93.67,0,0,1,23.58,78.55l.3,3.51A97.18,97.18,0,0,0,107.19,17.42Z"/><path class="cls-22" d="M25.49,87.32a1.76,1.76,0,0,0-1.76,1.76h0V99.61a1.76,1.76,0,0,0,1.76,1.76H37.78a1.76,1.76,0,0,0,1.76-1.76h0V89.08a1.76,1.76,0,0,0-1.76-1.76H25.49ZM36,97.85H27.24v-7H36Z"/><path class="cls-23" d="M44.8,82.06A1.76,1.76,0,0,0,43,83.78V99.61a1.76,1.76,0,0,0,1.76,1.76H57.08a1.76,1.76,0,0,0,1.76-1.76h0V83.81a1.76,1.76,0,0,0-1.76-1.76H44.8Zm10.53,15.8H46.55V85.57h8.78Z"/><path class="cls-24" d="M64.1,73.28A1.76,1.76,0,0,0,62.35,75V99.61a1.76,1.76,0,0,0,1.76,1.76H76.39a1.76,1.76,0,0,0,1.76-1.76h0V75a1.76,1.76,0,0,0-1.76-1.76h0ZM74.63,97.85H65.86V76.79h8.78Z"/><path class="cls-25" d="M83.41,61a1.76,1.76,0,0,0-1.76,1.76h0V99.61a1.76,1.76,0,0,0,1.76,1.76H95.7a1.76,1.76,0,0,0,1.76-1.76h0V62.75A1.76,1.76,0,0,0,95.7,61ZM93.94,97.85H85.17V64.5h8.78Z"/><path class="cls-26" d="M102.72,36.42A1.76,1.76,0,0,0,101,38.18V99.61a1.76,1.76,0,0,0,1.76,1.76H115a1.76,1.76,0,0,0,1.76-1.76h0V38.18A1.76,1.76,0,0,0,115,36.42H102.72Zm10.53,61.43h-8.78V39.93h8.78Z"/></g></g><g id="Layer_2-5" data-name="Layer 2"><g id="Layer_1-2-5" data-name="Layer 1-2"><path class="cls-27" d="M413.77,177.4l3-13.25a18,18,0,0,1,13.92-13.63l34.9-7.14a18,18,0,0,1,20.67,12L494.94,182a18,18,0,0,1-11.23,22.55l-30.06,10.32a18,18,0,0,1-18.54-4.28l-16.53-16.53A18,18,0,0,1,413.77,177.4Z"/><path class="cls-28" d="M463,218.78a5.65,5.65,0,1,0-5.65-5.65A5.65,5.65,0,0,0,463,218.78Zm0-7.54a1.88,1.88,0,1,1-1.88,1.88h0A1.88,1.88,0,0,1,463,211.24Z"/><path class="cls-29" d="M405.84,207.48a5.65,5.65,0,1,0,5.65,5.65A5.65,5.65,0,0,0,405.84,207.48Zm0,7.54a1.88,1.88,0,1,1,1.88-1.88h0a1.88,1.88,0,0,1-1.88,1.86Z"/><path class="cls-30" d="M436.29,175.45V134h-3.77v7.54H404.38a17,17,0,0,0-15.32,9.7l-11.43,24.1a17.06,17.06,0,0,0-1.63,7.27v26.75a5.66,5.66,0,0,0,5.65,5.64H392.8a13.17,13.17,0,0,0,26.07,0h31.06a13.19,13.19,0,1,0,0-3.77h-31a13.07,13.07,0,0,0-1.14-3.77h29.2l.49-1.13a17,17,0,0,1,32.49,6.78V215H492.8V175.45Zm-52.75,13.19a5.64,5.64,0,0,1-3.77,5.31V183.33A5.64,5.64,0,0,1,383.54,188.64Zm-3.77,20.72v-1.88h14.17a13.07,13.07,0,0,0-1.14,3.77H381.65a1.88,1.88,0,0,1-1.88-1.88Zm26.07,13.19a9.42,9.42,0,1,1,9.42-9.42h0A9.43,9.43,0,0,1,405.84,222.55ZM463,203.71a9.42,9.42,0,1,1-9.42,9.42h0A9.43,9.43,0,0,1,463,203.71Zm20.64,7.54a20.72,20.72,0,0,0-39.09-7.54H415a13.19,13.19,0,0,0-2.47-1.89l3.76-3.76h12.46V179.22H425v15.07H414.78l-6,6a13.06,13.06,0,0,0-12.16,3.42H379.77v-5.84a9.4,9.4,0,0,0,.38-18.34A13.19,13.19,0,0,1,381,177l11.46-24.15a13.25,13.25,0,0,1,11.92-7.55h28.14v33.92H489V183h-3.77v3.77H489v24.47Z"/><path class="cls-31" d="M396.82,154.87l-8.57,20.58h40.5V149.07H405.52A9.39,9.39,0,0,0,396.82,154.87ZM425,171.68H393.9l6.4-15.36a5.64,5.64,0,0,1,5.22-3.48H425Z"/><rect class="cls-32" x="411.8" y="179.22" width="7.54" height="3.77"/><rect class="cls-33" x="432.52" y="182.98" width="48.98" height="3.77"/></g></g><g id="Layer_2-6" data-name="Layer 2"><g id="Layer_1-2-6" data-name="Layer 1-2"><path class="cls-34" d="M264.46,183l33.29-22.58a18.67,18.67,0,0,1,23.12,1.71L345,184.29a18.67,18.67,0,0,1-.89,28.25l-31.26,25.3a18.67,18.67,0,0,1-19.48,2.48l-17.72-8.06a18.67,18.67,0,0,1-9-8.63l-8.44-16.86A18.67,18.67,0,0,1,264.46,183Z"/><path class="cls-35" d="M365.16,226.88h-4.81V157.05a5.9,5.9,0,0,0-5.89-5.89H343.7a5.9,5.9,0,0,0-5.89,5.89v69.82H325.59V188.69a5.9,5.9,0,0,0-5.85-5.9H309a5.9,5.9,0,0,0-5.89,5.89v38.19H290.85V207.11a5.9,5.9,0,0,0-5.89-5.89H274.21a5.9,5.9,0,0,0-5.89,5.89v19.78h-5.07a2.19,2.19,0,1,0,0,4.39H365.16a2.19,2.19,0,1,0,0-4.39h0Zm-92.45,0V207.11a1.51,1.51,0,0,1,1.51-1.51H285a1.51,1.51,0,0,1,1.52,1.5h0v19.78Zm34.75,0V188.69a1.51,1.51,0,0,1,1.51-1.48h10.78a1.51,1.51,0,0,1,1.51,1.51v38.19Zm34.75,0V157.05a1.51,1.51,0,0,1,1.51-1.51h10.75a1.51,1.51,0,0,1,1.51,1.51v69.82Z"/><path class="cls-36" d="M282,180.05a2.19,2.19,0,0,0,1.55-.64l37.9-37.9,8.18,8.18a2.19,2.19,0,0,0,3.09,0h0L356,126.49v7.41a2.19,2.19,0,1,0,4.39,0h0V121.32a2.19,2.19,0,0,0-2.06-2.31H344.66a2.19,2.19,0,1,0,0,4.39h8.23l-21.71,21.68L323,136.89a2.19,2.19,0,0,0-3.09,0h0L280.5,176.3a2.19,2.19,0,0,0,1.55,3.79Z"/><circle class="cls-37" cx="274.65" cy="185.51" r="2.19"/></g></g><g id="Layer_2-7" data-name="Layer 2"><g id="Layer_1-2-7" data-name="Layer 1-2"><path class="cls-38" d="M18.42,140l36.69-9.7a14,14,0,0,1,13.66,3.83l19.59,20.35a14,14,0,0,1-.4,19.79l-.52.48-34.55,30a14,14,0,0,1-21.51-4L9.66,160.12A14,14,0,0,1,18.42,140Z"/><path class="cls-39" d="M63.81,222.94a1.67,1.67,0,0,1-1.67-1.67V215.6h-7.3a1.67,1.67,0,1,1,0-3.34H67.26a5.92,5.92,0,0,0,0-11.83H60.33a9.26,9.26,0,0,1,0-18.51h1.78v-5.57a1.67,1.67,0,1,1,3.34,0h0v5.56h7.07a1.67,1.67,0,0,1,0,3.34H60.33a5.92,5.92,0,0,0,0,11.83h6.93a9.26,9.26,0,0,1,.13,18.51H65.48v5.66a1.67,1.67,0,0,1-1.65,1.69Z"/><path class="cls-40" d="M34.57,239.52a22.14,22.14,0,0,1-22.11-22.11,70.11,70.11,0,0,1,5.89-28,86.07,86.07,0,0,1,12.9-20.69,97.84,97.84,0,0,1,16.33-15.55l1-.76L34,130.39a1.68,1.68,0,0,1,.19-2.09c4.45-4.57,9-6.7,14.2-6.7,4.3,0,8.79,1.33,14.61,3.48a5.1,5.1,0,0,0,1.9.33c2,0,4.13-.9,6.43-1.85l.23-.09c2.66-1.1,5.91-2.47,9.31-2.47,3.56,0,6.78,1.46,9.84,4.45a1.63,1.63,0,0,1,.31,2L77.61,152.3l.95.7A96,96,0,0,1,95.1,168.73,85.34,85.34,0,0,1,108,189.42a70.11,70.11,0,0,1,5.89,28,22.14,22.14,0,0,1-22.11,22.11ZM51,154.74A93.57,93.57,0,0,0,33.68,171C21.82,185.33,15.8,201,15.8,217.41a18.79,18.79,0,0,0,18.77,18.77H91.78a18.71,18.71,0,0,0,18.72-18.7s0-.05,0-.08c0-16.49-6-32.1-17.88-46.4a91.68,91.68,0,0,0-17.38-16.27l-.35-.24H51.4ZM48.43,124.9a14.46,14.46,0,0,0-10,4l-.9.78,14.28,21.46h22.6l13-24.25-1-.69a9.32,9.32,0,0,0-5.65-1.91c-2.66,0-5.24,1.08-8,2.21-2.46,1-5.22,2.2-8,2.2a8.89,8.89,0,0,1-3-.52C56.41,126.15,52.26,124.9,48.43,124.9Z"/></g></g><g id="Layer_2-8" data-name="Layer 2"><g id="Layer_1-2-8" data-name="Layer 1-2"><path class="cls-41" d="M181.47,186.11,168,154.82a15,15,0,0,1,7.82-19.72q.66-.28,1.34-.5l37.37-11.89a15,15,0,0,1,18.86,9.71l.14.47,13.75,48.34a15,15,0,0,1-3.71,14.58L230,209.6a15,15,0,0,1-20,1.3l-24-19A15,15,0,0,1,181.47,186.11Z"/><path class="cls-42" d="M241.76,227.34h-11V188.58a1.79,1.79,0,0,0-1.76-1.79h-4.71a1.79,1.79,0,1,0,0,3.58h2.92v37h-25v-37h14.44a1.79,1.79,0,0,0,0-3.58H202.16V176.65a1.79,1.79,0,0,0-1.79-1.79h-3a4.17,4.17,0,0,0,0-.6v-1a5.61,5.61,0,0,0-5.61-5.61h-3.91V164a9.66,9.66,0,0,0,5.51-3.17h.15a8.9,8.9,0,0,0,8.89-8.91v-.85a7,7,0,0,0-6.68-7v-.84a1.79,1.79,0,0,0-1.79-1.79H178.19a1.79,1.79,0,0,0-1.79,1.79h0v.84a7,7,0,0,0-6.68,7v.83a8.9,8.9,0,0,0,8.89,8.89h.15a9.66,9.66,0,0,0,5.51,3.21v3.75h-3.93a5.61,5.61,0,0,0-5.61,5.61h0v1a4.17,4.17,0,0,0,0,.6h-3a1.79,1.79,0,0,0-1.73,1.69v13a1.79,1.79,0,0,0,3.58,0V178.44h25v48.9h-25v-30a1.79,1.79,0,0,0-3.58,0v3.76H143.13a1.79,1.79,0,0,0-1.79,1.79V205a1.79,1.79,0,1,0,3.58,0h0v-.36H170V227.3H145V212.67a1.79,1.79,0,0,0-3.58,0v14.67h-11a5.37,5.37,0,1,0-.46,10.73h111.8a5.37,5.37,0,0,0,0-10.73Zm-42.94-76.27v.83a5.32,5.32,0,0,1-3.4,5,9.64,9.64,0,0,0,.3-2.38v-6.83A3.4,3.4,0,0,1,198.82,151.07Zm-25.52.83v-.83a3.4,3.4,0,0,1,3.1-3.38v6.78a9.65,9.65,0,0,0,.3,2.38A5.32,5.32,0,0,1,173.3,151.9Zm6.7,2.57V145h12.15v9.42a6.08,6.08,0,0,1-12.16,0Zm-1.09,20.39a.6.6,0,0,1-.6-.6v-1a2,2,0,0,1,2-2h11.48a2,2,0,0,1,2,2v1a.6.6,0,0,1-.6.6Zm62.85,56.05a1.79,1.79,0,0,1,0,3.58H130.37a1.79,1.79,0,0,1,0-3.58H241.76"/></g></g><g id="Layer_2-9" data-name="Layer 2"><g id="Layer_1-2-9" data-name="Layer 1-2"><path class="cls-43" d="M343,302.94,326,286a24,24,0,1,1,34,0Z"/><path class="cls-44" d="M359.6,269A16.62,16.62,0,1,1,343,252.38h0A16.62,16.62,0,0,1,359.6,269Z"/><path class="cls-45" d="M343,263.46h5.54v-3.69h-3.71v-3.69h-3.69v4A5.52,5.52,0,0,0,343,270.85a1.85,1.85,0,0,1,0,3.69h-5.55v3.69h3.69v3.69h3.69v-4A5.52,5.52,0,0,0,343,267.15a1.85,1.85,0,1,1-.27-3.69Z"/></g></g><g id="Layer_2-10" data-name="Layer 2"><g id="Layer_1-2-10" data-name="Layer 1-2"><path class="cls-46" d="M9.28,251h0a2.16,2.16,0,0,0-2.18,2.17v32.56a2.18,2.18,0,0,0,2.17,2.17c5.05,0,13.55,1.06,19.36,7.17V261a2.07,2.07,0,0,0-.3-1.1c-4.84-7.74-14-8.9-19.07-8.91Z"/><path class="cls-47" d="M53.55,285.73V253.17A2.16,2.16,0,0,0,51.39,251h0c-5.06,0-14.28,1.18-19.07,8.91A2.07,2.07,0,0,0,32,261v34.06c5.81-6.11,14.31-7.16,19.36-7.17a2.18,2.18,0,0,0,2.17-2.17Z"/><path class="cls-48" d="M58.49,258.5H56.92v27.22a5.56,5.56,0,0,1-5.54,5.54c-4.29,0-11.36.85-16.36,5.59,8.65-2.12,17.78-.75,23,.45a2.17,2.17,0,0,0,2.65-2.12V260.68a2.17,2.17,0,0,0-2.17-2.17h0Z"/><path class="cls-49" d="M3.75,285.73V258.5H2.17A2.17,2.17,0,0,0,0,260.67H0v34.49a2.17,2.17,0,0,0,2.65,2.12c5.2-1.18,14.33-2.57,23-.45-5-4.73-12.08-5.58-16.35-5.59A5.56,5.56,0,0,1,3.75,285.73Z"/></g></g><g id="Layer_2-11" data-name="Layer 2"><g id="Layer_1-2-11" data-name="Layer 1-2"><path class="cls-50" d="M171.67,283a12.46,12.46,0,0,1-10.09,5.15h-5.8a4.64,4.64,0,0,1-4.36-3.06,14.74,14.74,0,0,1-2.35-.93,15.8,15.8,0,0,1-4.38-3.24A18.72,18.72,0,0,0,130,299.22v1.17a2.91,2.91,0,0,0,2.91,2.91h45.18a2.91,2.91,0,0,0,2.91-2.91v-1.17A18.71,18.71,0,0,0,171.67,283Z"/><path class="cls-51" d="M141.58,274.94a3.31,3.31,0,0,0,2.91-1.72v.12h0a12.94,12.94,0,0,0,7.3,7.68,4.64,4.64,0,0,1,3.93-2.17h5.81a3.25,3.25,0,0,0,1.59-.43,6.57,6.57,0,0,0,1.88-2.17,16.74,16.74,0,0,0,1.45-3.07,3.33,3.33,0,0,0,.92,1.06v1.46a5.85,5.85,0,0,1-5.84,5.84h-5.75a2,2,0,0,0,0,4h5.81a9.83,9.83,0,0,0,9.81-9.84v-1.42a3.31,3.31,0,0,0,1.33-2.65v-8.3a3.31,3.31,0,0,0-1.38-2.69,15.9,15.9,0,0,0-31.71,0,3.31,3.31,0,0,0-1.38,2.69v8.3a3.32,3.32,0,0,0,3.32,3.32ZM155.5,250a11.94,11.94,0,0,1,11.87,10.72,3.32,3.32,0,0,0-.93,1.15c-1.88-4.87-6.07-8.3-10.94-8.3s-9.1,3.53-10.93,8.29h0a3.32,3.32,0,0,0-.93-1.15A11.94,11.94,0,0,1,155.5,250Z"/></g></g><g id="Layer_2-12" data-name="Layer 2"><g id="Layer_1-2-12" data-name="Layer 1-2"><path class="cls-52" d="M92.79,284.46,95,281.82a19.89,19.89,0,0,1-10.81-9.1L68.81,291.06l.91,9.94,9.95-.91,2.39-2.85,5.63-1.08.12-4.93,4.83-1Z"/><path class="cls-53" d="M104.45,259.6a1.93,1.93,0,1,0,.24,2.73,1.93,1.93,0,0,0-.24-2.73Z"/><path class="cls-54" d="M111.88,250.75a16,16,0,1,0,2,22.65,16,16,0,0,0-2-22.65ZM99.5,265.5a5.78,5.78,0,1,1,8.14-.72h0A5.78,5.78,0,0,1,99.5,265.5Z"/></g></g><g id="Layer_2-13" data-name="Layer 2"><g id="Layer_1-2-13" data-name="Layer 1-2"><path class="cls-55" d="M224,257.62a10.85,10.85,0,0,1,5,8.06,8.75,8.75,0,1,0-5-8.06Zm-5.72,17.92a8.75,8.75,0,1,0-8.75-8.75h0A8.75,8.75,0,0,0,218.28,275.54Zm3.71.6h-7.42a11.22,11.22,0,0,0-11.21,11.21v9.23l.63.2a51.05,51.05,0,0,0,15.24,2.46c8.24,0,13-2.35,13.31-2.5l.58-.29h.06v-9.1A11.22,11.22,0,0,0,222,276.14Zm14.48-9h-7.36a10.79,10.79,0,0,1-3.33,7.51,13.31,13.31,0,0,1,9.51,12.74v2.8c7.28-.27,11.47-2.33,11.75-2.47l.58-.3h.07v-9.11a11.22,11.22,0,0,0-11.21-11.21Zm-33.55-.6a8.7,8.7,0,0,0,4.66-1.35,10.85,10.85,0,0,1,4.07-6.91v-.49a8.75,8.75,0,1,0-8.75,8.75Zm7.86,8.11a10.8,10.8,0,0,1-3.33-7.47h-8.24A11.22,11.22,0,0,0,188,278.31v9.23l.63.2a52.54,52.54,0,0,0,12.64,2.36v-2.74a13.31,13.31,0,0,1,9.51-12.74Z"/></g></g><g id="Layer_2-14" data-name="Layer 2"><g id="Layer_1-2-14" data-name="Layer 1-2"><path class="cls-56" d="M280,261c-4,0-6.14,2-6.1,6,.06,5.41,2.36,8.69,6.1,8.63,0,0,6.1.25,6.1-8.63C286.1,263,284,261,280,261Z"/><path class="cls-57" d="M301.21,289.66a6.77,6.77,0,0,0-2.26.39l-3-3a20.32,20.32,0,0,0,0-25.17l3-3a6.79,6.79,0,1,0-4.14-4.1l-3.06,3.06a20.33,20.33,0,0,0-23.5,0l-3.06-3.06A6.79,6.79,0,1,0,261,259l3,3a20.33,20.33,0,0,0,0,25.17l-3,3a6.79,6.79,0,1,0,4.14,4.14l3.06-3.06a20.33,20.33,0,0,0,23.5,0l3.06,3.06a6.79,6.79,0,1,0,6.4-4.53ZM292.66,285c-.23-2.2-.7-4.85-1.87-5.31l-6.1-2.43-1.43-1.2a1,1,0,0,0-1.28,0l-2,2-2-2a1,1,0,0,0-1.28,0l-1.43,1.2-6.1,2.43c-1.17.46-1.64,3.11-1.87,5.31a16.45,16.45,0,1,1,25.33,0Z"/></g></g></g></g></svg>